<svg id="Layer_1" data-name="Layer 1" xmlns="http://www.w3.org/2000/svg" width="146.3" height="142" viewBox="0 0 146.3 142"><defs><style>.cls-1{fill:#fab516;}.cls-2{fill:#cb9207;}.cls-3{fill:#ffecc0;}.cls-4{fill:#fff1c9;}.cls-5{fill:#0d324b;}.cls-6{fill:#f9b415;}.cls-7{fill:#ffda83;}.cls-8{fill:#d80f22;}.cls-9{fill:#b2191c;}.cls-10{fill:#fff;opacity:0.3;}</style></defs><title>jammie-dodger</title><path class="cls-1" d="M146.3,70.7c-0.4,9.7-3.5,19.1-8.2,28.1-2.5,4.7-5,9.4-7.6,14-1.2,2.1-2.2,4.2-4.2,5.8s-1.9,2.9-2.9,4.3a14.5,14.5,0,0,1-2.9,3.1c-2.9,2.1-5.9,4.2-8.9,6.2a64.3,64.3,0,0,1-13.6,6.3c-7.3,2.6-15,3.1-22.7,3.5-5,.3-9.8-1.1-14.6-1.9l-7.5-1.4A46.8,46.8,0,0,1,32,129.1c-3-2.4-6.1-4.7-9.2-7a26.2,26.2,0,0,1-7.5-8.2c-1.8-3.2-3.7-6.2-5.7-9.3A30.9,30.9,0,0,1,4.2,91.4c-0.8-5.9-2-11.8-2.6-17.8a31.6,31.6,0,0,1,.9-9.2Q4.9,53.1,7.7,41.8A26.8,26.8,0,0,1,10.5,35c2.1-3.6,4.4-7.1,6.8-10.5a29,29,0,0,1,8.3-7.9A17.2,17.2,0,0,0,28,14.7a45.2,45.2,0,0,1,21.5-11,23.4,23.4,0,0,0,5.4-1.8c4.2-2.1,8.6-2,13.1-1.7l3.3,0.2c6.2,0.4,12.4.6,18.6,1.3a62.8,62.8,0,0,1,10.7,2.1c4.5,1.3,8.4,3.8,12.3,6.3l2.4,1.7c2.1,1.4,4.3,2.7,5.7,4.9a20.6,20.6,0,0,0,3,3,40,40,0,0,1,6.8,7.9,6.5,6.5,0,0,0,1.2,1.4c3.2,2.9,5.1,6.6,6.8,10.4,1,2.3,2.2,4.4,3.1,6.7a35.5,35.5,0,0,1,2.3,7c0.9,5.1,1.4,10.3,2,15.4A19.7,19.7,0,0,1,146.3,70.7Z"/><path class="cls-2" d="M65.9,6.3c0.5,1.8,1.8,1.7,3.3,1.3,3.6-1.1,6.9-.4,10.3.8,1.5,0.5,3.3.3,4.9,0.3a16.6,16.6,0,0,0,2.9-.4A4.7,4.7,0,0,1,92,10c1.5,1.8,3.6,1.9,5.8,2.1h1.8c1.9-.3,3.2.6,4.5,1.6l2.4,2a14.5,14.5,0,0,0,6.7,3.5c2.3,0.4,4.5,1.4,5.1,3.9a3.9,3.9,0,0,0,3,2.9c3.5,0.8,5.3,3.4,7.2,5.9A4.4,4.4,0,0,1,129,33a43.3,43.3,0,0,0,2,5.4,8.4,8.4,0,0,0,2.7,3,5.8,5.8,0,0,1,2.6,4.1c0.3,1.9.3,3.8,0.6,5.7a13.6,13.6,0,0,0,1.4,4.6c1.6,2.7,2.3,5.3,1.4,8.3s-0.5,5.7.3,8.6a31.2,31.2,0,0,1,.6,5.3,1.6,1.6,0,0,0,0,.2c0.6,2.3-.3,4.1-1.8,5.8s-0.7,2.5-.7,3.9,0.1,3.9.1,5.9a2.4,2.4,0,0,1-1.3,2.3,9.3,9.3,0,0,0-4.7,6.3,20.3,20.3,0,0,1-1.3,3.4,5.7,5.7,0,0,1-3.6,3.6,6.1,6.1,0,0,0-3.5,3.2c-0.8,1.5-1.7,2.8-2.6,4.2a4.9,4.9,0,0,1-3.3,2.1,8.6,8.6,0,0,0-2.8.9,8.2,8.2,0,0,0-2.6,2.5,10.2,10.2,0,0,1-9,5.4,6.6,6.6,0,0,0-4.3,2.2l-2.1,2.2c-2.2,2.4-4.6,2.9-7.8,1.9L86,133a5,5,0,0,0-4.9.9A9.5,9.5,0,0,1,75,136a7.9,7.9,0,0,1-5.2-1.4,4.8,4.8,0,0,0-5.1-.7,6.2,6.2,0,0,1-7.3-1.4,5.1,5.1,0,0,0-5.6-1.3,6.8,6.8,0,0,1-6.9-1.1,10.2,10.2,0,0,1-1.6-2c-0.5-.7-0.8-1.5-1.3-2.2a4.5,4.5,0,0,0-4.4-2c-2.8.4-4.4-1-5.7-3.1s-0.8-2.7-2.2-3.4a11.6,11.6,0,0,0-3.3-1.4,6.7,6.7,0,0,1-6-4.8,8,8,0,0,0-3.5-4.6,17.3,17.3,0,0,1-2.3-1.8c-2-1.7-2.4-4-2.6-6.4a5.1,5.1,0,0,0-1.8-3.8A6.7,6.7,0,0,1,8,90.2,40.7,40.7,0,0,0,5.2,79.4c-0.8-1.9-.5-4.2-0.3-6.3a20.7,20.7,0,0,0-.1-5.9A22.6,22.6,0,0,1,4.2,63a10.6,10.6,0,0,1,1-4.5,12.7,12.7,0,0,0,1.4-6.2A6.9,6.9,0,0,1,9,46.8c2.4-2,3.4-4.6,4-7.5s1.8-5.3,5.1-6.3a5.2,5.2,0,0,0,3.1-3,31.1,31.1,0,0,0,1.5-3.5,4.2,4.2,0,0,1,3-2.7l3.7-1.1a4.3,4.3,0,0,0,3-2.1c0.4-.8.9-1.5,1.3-2.2a7.1,7.1,0,0,1,6.6-3.9,4,4,0,0,0,3.7-2.1c1.2-2.1,3.3-2.5,5.6-2.6L51,9.9c2.6,0.3,5.1.3,7.5-1.2a11.4,11.4,0,0,1,6-1.9A4.9,4.9,0,0,0,65.9,6.3Zm67.4,45.2a20.5,20.5,0,0,0-.3-3.3c-0.3-1.3-.4-2.7-1.7-3.5-3.4-2.3-4.6-5.6-5.5-9.1a8.4,8.4,0,0,0-5.6-6.1c-2.4-.8-4.2-2.1-5-4.2a4.7,4.7,0,0,0-4-3,13.6,13.6,0,0,1-7.4-3.9,9.6,9.6,0,0,0-7.5-3.1c-2.7.1-5.4-.4-7.2-2.8a2.9,2.9,0,0,0-2-.8,15.1,15.1,0,0,0-3.1.3c-2.5.4-4.9,0.7-7.3-.5a10,10,0,0,0-8.3-.4,4.2,4.2,0,0,1-3.9-.2,2.8,2.8,0,0,0-1.9-.3,10.9,10.9,0,0,0-3.8,1.3c-2.8,2-6,1.9-9.1,1.5s-4.2.1-5.4,2a5.7,5.7,0,0,1-5.3,2.7,4.3,4.3,0,0,0-4.4,2.7c-1.4,2.9-3.6,5.4-7.4,5.8l-0.9.2a4.3,4.3,0,0,0-3.1,2.8,42.1,42.1,0,0,1-1.8,3.8,4.7,4.7,0,0,1-2.9,2.5,6,6,0,0,0-4.3,4.9c-0.7,2.9-1.4,5.8-3.8,7.9A7.3,7.3,0,0,0,8,54.3a13.7,13.7,0,0,1-1.5,6.3A7.6,7.6,0,0,0,5.7,64a25.2,25.2,0,0,0,.7,3.7A16.2,16.2,0,0,1,6.5,74c-0.4,1.8-.8,3.7.1,5.6a20.7,20.7,0,0,1,2.3,8.7,7.3,7.3,0,0,0,2.1,5.4,7.5,7.5,0,0,1,2.6,5.6c0.1,2.8,1.6,4.8,3.9,6.3a7.5,7.5,0,0,1,2.4,2.4,24.7,24.7,0,0,1,2,3.7,4.4,4.4,0,0,0,3.8,2.8c3.2,0.4,5.5,1.7,6.5,4.7l0.4,1c1,1.8,2.2,2.3,4.4,2.1a4.9,4.9,0,0,1,3.6.9,5.9,5.9,0,0,1,2.7,3.2,5.2,5.2,0,0,0,3.2,3.4,6.8,6.8,0,0,0,5.3-.2,4.4,4.4,0,0,1,4.6.9l1.2,1a5,5,0,0,0,6.2,1c2.2-1.1,4-.6,5.8.8s7.2,1.8,9.6-.3a5.9,5.9,0,0,1,5.8-1.5l3.5,0.9c3.7,1.1,5.3.6,7.6-2.4a9.6,9.6,0,0,1,7.3-4.1,6.6,6.6,0,0,0,6.2-4.1,6,6,0,0,1,4.3-3.4c2.6-.6,4.9-1.8,5.9-4.4,0.1-.3.4-0.6,0.5-0.9a8.3,8.3,0,0,1,5.1-5,3.9,3.9,0,0,0,2.2-2.3,9.2,9.2,0,0,0,.8-2.2,12.1,12.1,0,0,1,5.5-8.4,2.2,2.2,0,0,0,.8-1.6c0-1.7-.2-3.5-0.2-5.2s-0.1-2.9.6-3.8a8.2,8.2,0,0,0,1.6-7.3,14.6,14.6,0,0,1-.1-2.1,6.9,6.9,0,0,0-.3-1.8,13.4,13.4,0,0,1-.4-7.9,9.7,9.7,0,0,0-1.1-7.9A10.1,10.1,0,0,1,133.3,51.5Z"/><path class="cls-3" d="M134.9,50.5a10.2,10.2,0,0,0,1.6,6.1,9.8,9.8,0,0,1,1.1,7.9,13.6,13.6,0,0,0,.4,8,6.9,6.9,0,0,1,.3,1.9,14.8,14.8,0,0,0,.1,2.1,8.3,8.3,0,0,1-1.6,7.4c-0.7,1-.6,2.6-0.6,3.9s0.2,3.5.2,5.3a2.2,2.2,0,0,1-.8,1.6,12.2,12.2,0,0,0-5.6,8.5,9.3,9.3,0,0,1-.9,2.2,3.9,3.9,0,0,1-2.2,2.3,8.4,8.4,0,0,0-5.2,5c-0.1.3-.4,0.6-0.5,0.9-1,2.6-3.3,3.8-5.9,4.4a6,6,0,0,0-4.4,3.4,6.6,6.6,0,0,1-6.3,4.2,9.7,9.7,0,0,0-7.4,4.2c-2.3,3-3.9,3.5-7.7,2.4l-3.5-.9a6,6,0,0,0-5.9,1.5c-2.5,2.1-7.2,2.4-9.7.3s-3.6-1.9-5.8-.8a5.1,5.1,0,0,1-6.2-1l-1.2-1a4.4,4.4,0,0,0-4.6-.9,6.9,6.9,0,0,1-5.3.2,5.3,5.3,0,0,1-3.2-3.4,6,6,0,0,0-2.7-3.3,5,5,0,0,0-3.6-.9c-2.2.3-3.5-.3-4.5-2.1l-0.5-1c-1-3-3.4-4.3-6.6-4.8a4.4,4.4,0,0,1-3.9-2.9,25,25,0,0,0-2-3.8,7.5,7.5,0,0,0-2.5-2.4c-2.3-1.5-3.9-3.5-4-6.3a7.6,7.6,0,0,0-2.6-5.7A7.4,7.4,0,0,1,9,87.6a21,21,0,0,0-2.3-8.8c-1-1.9-.5-3.8-0.1-5.6a16.4,16.4,0,0,0-.1-6.3,25.6,25.6,0,0,1-.7-3.7,7.7,7.7,0,0,1,.8-3.4,13.9,13.9,0,0,0,1.6-6.4,7.3,7.3,0,0,1,2.6-5.9c2.5-2.2,3.2-5.1,3.8-8s1.7-4.2,4.4-5a4.7,4.7,0,0,0,2.9-2.6A42.6,42.6,0,0,0,23.6,28a4.3,4.3,0,0,1,3.2-2.8l0.9-.2c3.9-.4,6-2.9,7.5-5.9a4.3,4.3,0,0,1,4.4-2.7,5.8,5.8,0,0,0,5.3-2.7c1.3-1.9,3-2.4,5.5-2s6.4,0.5,9.3-1.5a11.1,11.1,0,0,1,3.8-1.3,2.9,2.9,0,0,1,1.9.3,4.3,4.3,0,0,0,3.9.2,10.1,10.1,0,0,1,8.4.4c2.4,1.2,4.9.9,7.4,0.5a15.2,15.2,0,0,1,3.2-.3,3,3,0,0,1,2,.8c1.8,2.5,4.5,3,7.2,2.9a9.7,9.7,0,0,1,7.6,3.1,13.7,13.7,0,0,0,7.4,3.9,4.7,4.7,0,0,1,4,3.1c0.8,2.2,2.6,3.4,5,4.3a8.5,8.5,0,0,1,5.7,6.2c0.9,3.6,2.1,6.9,5.6,9.2,1.3,0.9,1.4,2.3,1.7,3.6A20.8,20.8,0,0,1,134.9,50.5Z"/><path class="cls-4" d="M87.2,9.8h0a15,15,0,0,0-3.1.3l-1.3.2A16.6,16.6,0,0,0,87.2,9.8Z"/><path class="cls-4" d="M135.7,64.7c0.1-.4.1-0.8,0.2-1.3a11.8,11.8,0,0,0,.3-4.2l-0.2,1A13.8,13.8,0,0,0,135.7,64.7Z"/><path class="cls-4" d="M72.5,8.9l1.7-.5a10.4,10.4,0,0,0-5.2.3A4,4,0,0,0,72.5,8.9Z"/><path class="cls-4" d="M134.1,88.2A11.4,11.4,0,0,0,129,96a8.7,8.7,0,0,1-.8,2,3.7,3.7,0,0,1-2.1,2.1,7.8,7.8,0,0,0-4.8,4.7c-0.1.3-.4,0.6-0.5,0.9-0.9,2.4-3,3.5-5.5,4.1a5.6,5.6,0,0,0-4.1,3.2,6.2,6.2,0,0,1-5.8,3.9,9,9,0,0,0-6.8,3.9c-2.2,2.8-3.7,3.2-7.1,2.2l-3.3-.8a5.6,5.6,0,0,0-5.5,1.4c-2.3,2-6.7,2.2-9,.3a4.6,4.6,0,0,0-5.4-.8,4.7,4.7,0,0,1-5.8-.9l-1.1-.9a4.1,4.1,0,0,0-4.3-.8,6.4,6.4,0,0,1-5,.2,4.9,4.9,0,0,1-3-3.2,5.6,5.6,0,0,0-2.5-3.1,4.6,4.6,0,0,0-3.4-.8c-2.1.3-3.2-.3-4.1-1.9l-0.4-.9c-0.9-2.8-3.1-4-6.1-4.4a4.1,4.1,0,0,1-3.6-2.7,23.2,23.2,0,0,0-1.9-3.5,7,7,0,0,0-2.3-2.3c-2.1-1.4-3.6-3.3-3.7-5.9a7.1,7.1,0,0,0-2.4-5.3,6.9,6.9,0,0,1-2-5.1,19.5,19.5,0,0,0-2.2-8.2c-0.9-1.7-.5-3.5-0.1-5.2a15.3,15.3,0,0,0-.1-5.9,23.8,23.8,0,0,1-.7-3.5,7.2,7.2,0,0,1,.7-3.2,12.9,12.9,0,0,0,1.5-5.9,6.8,6.8,0,0,1,2.4-5.5c2.3-2,2.9-4.8,3.6-7.5a5.7,5.7,0,0,1,4.1-4.6,4.4,4.4,0,0,0,2.7-2.4A39.6,39.6,0,0,0,30,26.2,4,4,0,0,1,33,23.6l0.8-.2c3.6-.4,5.6-2.7,7-5.5a4,4,0,0,1,4.1-2.5,5.4,5.4,0,0,0,5-2.5,4.2,4.2,0,0,1,1.7-1.6l-1.8-.2c-2.4-.3-4.2.1-5.4,2a5.7,5.7,0,0,1-5.3,2.7,4.3,4.3,0,0,0-4.4,2.7c-1.4,2.9-3.6,5.4-7.4,5.8l-0.9.2a4.3,4.3,0,0,0-3.1,2.8,42.1,42.1,0,0,1-1.8,3.8,4.7,4.7,0,0,1-2.9,2.5,6,6,0,0,0-4.3,4.9c-0.7,2.9-1.4,5.8-3.8,7.9A7.3,7.3,0,0,0,8,52.4a13.7,13.7,0,0,1-1.5,6.3A7.6,7.6,0,0,0,5.7,62a25.2,25.2,0,0,0,.7,3.7A16.2,16.2,0,0,1,6.5,72c-0.4,1.8-.8,3.7.1,5.6a20.7,20.7,0,0,1,2.3,8.7,7.3,7.3,0,0,0,2.1,5.4,7.5,7.5,0,0,1,2.6,5.6c0.1,2.8,1.6,4.8,3.9,6.3a7.5,7.5,0,0,1,2.4,2.4,24.7,24.7,0,0,1,2,3.7,4.4,4.4,0,0,0,3.8,2.8c3.2,0.4,5.5,1.7,6.5,4.7l0.4,1c1,1.8,2.2,2.3,4.4,2.1a4.9,4.9,0,0,1,3.6.9,5.9,5.9,0,0,1,2.7,3.2,5.2,5.2,0,0,0,3.2,3.4,6.8,6.8,0,0,0,5.3-.2,4.4,4.4,0,0,1,4.6.9l1.2,1a5,5,0,0,0,6.2,1c2.2-1.1,4-.6,5.8.8s7.2,1.8,9.6-.3a5.9,5.9,0,0,1,5.8-1.5l3.5,0.9c3.7,1.1,5.3.6,7.6-2.4a9.6,9.6,0,0,1,7.3-4.1,6.6,6.6,0,0,0,6.2-4.1,6,6,0,0,1,4.3-3.4c2.6-.6,4.9-1.8,5.9-4.4,0.1-.3.4-0.6,0.5-0.9a8.3,8.3,0,0,1,5.1-5,3.9,3.9,0,0,0,2.2-2.3,9.2,9.2,0,0,0,.8-2.2,12.1,12.1,0,0,1,5.5-8.4,2.2,2.2,0,0,0,.8-1.6c0-1.3-.1-2.7-0.2-4Z"/><path class="cls-4" d="M63.5,9.6L65,8.9l-0.4-.2a2.8,2.8,0,0,0-1.9-.3,10.9,10.9,0,0,0-3.8,1.3,9.2,9.2,0,0,1-3.2,1.4C58.4,11.4,61.1,11.3,63.5,9.6Z"/><path class="cls-4" d="M136.8,75.2a8.5,8.5,0,0,1-1.5,2.9c-0.7.9-.5,2.4-0.5,3.6s0,1.1,0,1.6a2.4,2.4,0,0,1,.4-0.8,8.2,8.2,0,0,0,1.6-7.3h0Z"/><path class="cls-5" d="M73.1,142c-2.6-.3-6.2-0.7-9.9-1.3s-8.7-1.4-13-2.5A55.5,55.5,0,0,1,33.5,131c-3.7-2.4-7.2-5.1-10.7-7.8a41.1,41.1,0,0,1-11.1-12.7c-1.5-2.6-3.3-5.1-4.8-7.7A27.3,27.3,0,0,1,3.1,93C2.3,88.5,1.3,84,.5,79.5a38.2,38.2,0,0,1,.9-16.1c1.8-7.1,3-14.3,4.8-21.4,0.6-2.6,2.1-5,3.4-7.4a45.4,45.4,0,0,1,4.2-6.7,55.7,55.7,0,0,1,7.4-8.1c3.9-3.3,8.3-6.2,12.5-9.3s7.8-3.9,12-5.2c2.6-.9,5.4-1.5,7.9-2.5A26.3,26.3,0,0,1,66.3,1l7,0.4c4.5,0.2,9,.2,13.5.6,2.9,0.3,5.8,1.2,8.8,1.7,6.5,1.2,12.1,4.1,17.6,7.6s9.4,8,13.9,12a25.7,25.7,0,0,1,2.2,2.9l4.9,5.8c2.6,3.1,4.1,6.8,5.6,10.5s3.6,6.3,4.2,9.9,0.9,4.9,1.3,7.3c1.3,7.4,1.5,14.7-.4,22a73.8,73.8,0,0,1-6.5,17c-3.1,5.7-6.4,11.3-9.6,16.9a68.9,68.9,0,0,1-4,6.2,21.9,21.9,0,0,1-6.6,5.9c-4.2,2.5-8.1,5.5-12.5,7.6a59.2,59.2,0,0,1-24.4,6.2Zm71.6-70.8a18.5,18.5,0,0,0,0-2c-0.6-5-1.2-10-2-14.9a33.7,33.7,0,0,0-2.3-6.8c-0.9-2.2-2.1-4.3-3.1-6.5-1.7-3.7-3.6-7.3-6.7-10.1a6.3,6.3,0,0,1-1.2-1.4,38.9,38.9,0,0,0-6.7-7.6,20.1,20.1,0,0,1-3-2.9c-1.4-2.1-3.5-3.4-5.6-4.7l-2.4-1.7c-3.8-2.5-7.7-4.9-12.1-6.1A63.5,63.5,0,0,0,88.9,4.5c-6.1-.6-12.2-0.8-18.4-1.2l-3.2-.2c-4.5-.3-8.8-0.4-13,1.6a23.6,23.6,0,0,1-5.4,1.8A45.1,45.1,0,0,0,27.6,17.1a17,17,0,0,1-2.3,1.8,28.4,28.4,0,0,0-8.2,7.7c-2.4,3.3-4.7,6.7-6.7,10.2a25.6,25.6,0,0,0-2.8,6.6Q4.8,54.2,2.5,65.2a29.8,29.8,0,0,0-.9,8.8c0.5,5.7,1.7,11.4,2.5,17.2A29.5,29.5,0,0,0,9.3,104c2,2.9,3.9,5.9,5.7,8.9a25.5,25.5,0,0,0,7.5,8c3.1,2.2,6.1,4.4,9.1,6.7a46.8,46.8,0,0,0,20.9,9.1l7.5,1.4c4.8,0.8,9.5,2.2,14.5,1.9,7.6-.4,15.1-0.9,22.4-3.4a64.3,64.3,0,0,0,13.4-6c3-1.9,6-3.9,8.8-5.9a14.1,14.1,0,0,0,2.8-3c1-1.4,1.6-3.2,2.9-4.2s3-3.6,4.2-5.6c2.6-4.5,5.1-9,7.5-13.6C141.2,89.7,144.2,80.6,144.6,71.2Z"/><path class="cls-6" d="M118.3,103.9c0.2,0.6.4,1.4,0.8,2.1a5.7,5.7,0,0,1-5.4,7.9c-2.5-.1-4.9-0.5-6.6-2.8a3.8,3.8,0,0,0-1.4-.9l-3.6-1.8c-2.5-1.3-3.3-4.1-2.5-6.8a4.3,4.3,0,0,1,4.9-2.4,8.4,8.4,0,0,1,4.3,2.5,5.9,5.9,0,0,0,5.3,2A23.8,23.8,0,0,1,118.3,103.9Zm-4.5,8.4c3.3-.4,4.9-3.5,3.4-6s-1.8-1.2-2.9-1.1a8,8,0,0,1-6.9-2.5,6.8,6.8,0,0,0-3.1-1.6c-1.8-.5-2.9.4-3.2,2.2a3.2,3.2,0,0,0,1.2,3.4c0.8,0.6,1.8,1.1,2.7,1.6a24.5,24.5,0,0,1,3.8,2.4A7.9,7.9,0,0,0,113.9,112.4Z"/><path class="cls-7" d="M113.9,112.4a7.9,7.9,0,0,1-5-1.7,24.5,24.5,0,0,0-3.8-2.4c-0.9-.5-1.8-1-2.7-1.6a3.2,3.2,0,0,1-1.2-3.4c0.3-1.8,1.4-2.7,3.2-2.2a6.8,6.8,0,0,1,3.1,1.6,8,8,0,0,0,6.9,2.5c1.1-.1,2.2-0.1,2.9,1.1S117.2,112,113.9,112.4Z"/><path class="cls-6" d="M110.4,36.9l3.3,4.6a3.5,3.5,0,0,1,.6,3.2c-0.9,3.3-1.1,6.9-3.3,9.9a12.4,12.4,0,0,1-3.4,3.3c-2.3,1.5-4.6,3.1-6.8,4.8s-2.2,3.7-2.4,5.8a1.8,1.8,0,0,0,.5,1.3,9.7,9.7,0,0,0,6.4,3.3c2.9,0.2,5.7.7,8,2.7,5.5,4.8,7.1,10.1,3.3,16.7a45.4,45.4,0,0,1-5.3,3.5,9.9,9.9,0,0,1-7.9.1,9.3,9.3,0,0,1-2.9-2.1L95,88.5A10.8,10.8,0,0,0,93.1,87a2.7,2.7,0,0,0-3.1,0,2.7,2.7,0,0,0-1,3.2,17.3,17.3,0,0,0,1.3,2.5l4.8,8.8a5.2,5.2,0,0,1-.5,5.8l-1.2,1.5c-3.6,4.1-8.3,4-11.8-.3a53.2,53.2,0,0,1-3.4-5.2c-1.5-2.4-2.9-4.9-5.4-6.7-1.3.4-1.7,1.4-2,2.5-0.9,2.6-1.7,5.1-2.7,7.7-1.9,4.9-5.5,7.3-10.5,7.1a8.8,8.8,0,0,1-7.7-4.9c-1.1-2-.7-4.2-0.1-6.3s1.6-5.4,2.3-8.1a8.4,8.4,0,0,0,.1-3.3c-0.5-2.9-2.6-4.6-5.8-5.1a52.2,52.2,0,0,1-8.9-1.9c-5.4-1.9-8.9-5.7-9.8-11.5-0.4-2.5,1-4.5,1.7-6.6A35.4,35.4,0,0,1,35,63.7a38.8,38.8,0,0,1,6.2-.6,7.4,7.4,0,0,0,6.4-5c0.9-2.4,0-5-1.2-7.3A8.5,8.5,0,0,0,45,48.9c-3.3-3.6-4.6-8-4.7-12.7a7.7,7.7,0,0,1,1.6-4.9A15,15,0,0,1,49,26a24,24,0,0,1,9.4-1.2,7.1,7.1,0,0,1,5,2.5,13.8,13.8,0,0,1,3.1,5.6,38.9,38.9,0,0,0,5.3,10.7,8.2,8.2,0,0,0,6.7,3.7,13.8,13.8,0,0,0,11.1-4.5c3.4-3.5,7-7,12-8.4a5.3,5.3,0,0,1,1.9-.4c1,0.1,2.2-.4,3,1s1.3,0.6,1.9.9h-0.1c0.5,0.6.8,1.8,2,1h-0.1Zm-37,57.9A7,7,0,0,1,75,96.1c1.8,2.5,3.6,5.1,5.3,7.7s3.1,5.4,6.5,6.2A4,4,0,0,0,91,109a13.3,13.3,0,0,0,1.9-2.2c1-1.6,1.4-3.3.3-5.2s-2.4-4.2-3.5-6.3a51.2,51.2,0,0,1-2.4-4.9c-0.8-2,.1-3.5,1.6-4.8s3.1-1.1,4.7-.3a5.4,5.4,0,0,1,1.3,1l6.7,6.5a5.5,5.5,0,0,0,4.5,1.9,13.8,13.8,0,0,0,8-2.8,7.5,7.5,0,0,0,2.8-7.3,11.7,11.7,0,0,0-7-9.1,26,26,0,0,0-6.3-1.4c-2.8-.5-4.7-2.3-6.7-4a1.3,1.3,0,0,1-.5-0.8c0-2.7.1-5.5,2.1-7.4a47,47,0,0,1,7.5-5.4,8.2,8.2,0,0,0,3.2-2.8,25.1,25.1,0,0,0,2.7-7.1c0.8-4.1-.7-6.8-3.9-8.9l-1.2-.7c-2.9-2.1-5.8-1.7-8.4.3a76.3,76.3,0,0,0-8,6.5,15.5,15.5,0,0,1-12.3,4.7,10,10,0,0,1-8.4-5.1,46.1,46.1,0,0,1-5.1-10.8c-1.4-4.6-4.5-6.9-9.1-6.5a19.5,19.5,0,0,0-10.2,3.7,7.8,7.8,0,0,0-3.5,7.5c0.4,3.8,1.4,7.4,4.2,10.2a13.7,13.7,0,0,1,3.7,6.9c0.9,4.3-3,9.5-7.7,10.3-2,.3-4,0.3-6,0.5s-4.8,1-6,3.3a7.2,7.2,0,0,0-.4,5.8c1.4,4.4,4.5,7,8.6,8.7a21.1,21.1,0,0,0,7.7,1.5c5.1,0.2,9.2,4.3,7.9,10.1-0.4,1.6-.8,3.1-1.2,4.6a57,57,0,0,0-1.5,6.5,5,5,0,0,0,.8,3.3,8,8,0,0,0,9.8,2.8,8.9,8.9,0,0,0,4.7-5.1c1-2.4,1.9-4.9,2.8-7.4A7,7,0,0,1,73.4,94.8Z"/><path class="cls-7" d="M73.4,94.8a7,7,0,0,0-4.2,4.5c-0.9,2.5-1.8,5-2.8,7.4a8.9,8.9,0,0,1-4.7,5.1,8,8,0,0,1-9.8-2.8,5,5,0,0,1-.8-3.3,57,57,0,0,1,1.5-6.5c0.4-1.5.8-3.1,1.2-4.6,1.4-5.9-2.8-10-7.9-10.1a21.1,21.1,0,0,1-7.7-1.5c-4.1-1.7-7.2-4.3-8.6-8.7a7.2,7.2,0,0,1,.4-5.8c1.3-2.2,3.5-3.1,6-3.3s4-.2,6-0.5c4.7-.8,8.6-5.9,7.7-10.3A13.7,13.7,0,0,0,46,47.5c-2.8-2.9-3.7-6.5-4.2-10.2a7.8,7.8,0,0,1,3.5-7.5,19.5,19.5,0,0,1,10.2-3.7c4.6-.4,7.7,1.9,9.1,6.5a46.1,46.1,0,0,0,5.1,10.8,10,10,0,0,0,8.4,5.1,15.5,15.5,0,0,0,12.3-4.7,76.3,76.3,0,0,1,8-6.5c2.7-2,5.5-2.3,8.4-.3l1.2,0.7c3.2,2.1,4.8,4.8,3.9,8.9a25.1,25.1,0,0,1-2.7,7.1,8.2,8.2,0,0,1-3.2,2.8A47,47,0,0,0,98.6,62c-2,1.9-2.1,4.7-2.1,7.4a1.3,1.3,0,0,0,.5.8c2,1.7,3.9,3.6,6.7,4a26,26,0,0,1,6.3,1.4,11.7,11.7,0,0,1,7,9.1,7.5,7.5,0,0,1-2.8,7.3,13.8,13.8,0,0,1-8,2.8,5.5,5.5,0,0,1-4.5-1.9l-6.7-6.5a5.4,5.4,0,0,0-1.3-1c-1.6-.8-3.1-1.1-4.7.3s-2.4,2.8-1.6,4.8a51.2,51.2,0,0,0,2.4,4.9c1.1,2.1,2.3,4.2,3.5,6.3s0.7,3.5-.3,5.2A13.3,13.3,0,0,1,91,109a4,4,0,0,1-4.2.9c-3.4-.8-4.9-3.6-6.5-6.2s-3.5-5.2-5.3-7.7A7,7,0,0,0,73.4,94.8Z"/><path class="cls-8" d="M75.4,89.4c-1.9-1-3.2-2.6-4.6-3.9s-0.7-.9-1.1-1.3c-3.1-2.9-6.1-5.8-9.3-8.6a18.5,18.5,0,0,1-4.6-6.1c-1.5-3.1-3-6.2-2.3-9.8A5.8,5.8,0,0,1,56.8,55a13.7,13.7,0,0,1,7.9-1.4A8.4,8.4,0,0,1,70,56.6l2,2,1.1-1.5a8.5,8.5,0,0,1,9.2-4l2.1,0.5c3.7,0.8,5.9,3.2,7.2,6.7a15.5,15.5,0,0,1,.4,10.1,14.3,14.3,0,0,1-3.4,6c-2.5,2.7-5.2,5.2-7.8,7.8Zm-0.2-2.7,4.8-4.7c2.5-2.4,5.1-4.8,7.5-7.4,4-4.4,4.2-9.9,1.9-15s-5.1-4.3-8.6-4.5-7.3,3.2-7,7.5a7.6,7.6,0,0,1,.2,1.9,1.5,1.5,0,0,1-.9,1.1,2.2,2.2,0,0,1-1.1-.9,1.1,1.1,0,0,1-.1-0.7c0.1-2.5-1.5-4.1-3-5.8a7,7,0,0,0-6.5-2.4l-2.8.5c-2.9.7-4,2-4,5.1a8.7,8.7,0,0,0,.5,2.8A26.2,26.2,0,0,0,63,75.3l9.9,9.4Z"/><path class="cls-9" d="M75.2,86.8l-2.3-2.1L63,75.3a26.2,26.2,0,0,1-7.1-10.9,8.7,8.7,0,0,1-.5-2.8c0-3.1,1.1-4.4,4-5.1l2.8-.5a7,7,0,0,1,6.5,2.4c1.5,1.7,3.1,3.3,3,5.8a1.1,1.1,0,0,0,.1.7,2.2,2.2,0,0,0,1.1.9,1.5,1.5,0,0,0,.9-1.1,7.6,7.6,0,0,0-.2-1.9c-0.3-4.3,2.3-7.7,7-7.5s7,0.9,8.6,4.5,2.2,10.5-1.9,15c-2.4,2.6-5,4.9-7.5,7.4Z"/><path class="cls-10" d="M88.1,61.8c-0.8-1.8-2.6-2.2-4.4-2.3H83.1a12,12,0,0,1,.9,2.1,11.8,11.8,0,0,1-1.3,9.4,13.3,13.3,0,0,1-2.9,3.3l1.2,1.1,2.4-2.4c1.3-1.2,2.6-2.4,3.8-3.7A6.6,6.6,0,0,0,88.1,61.8Z"/><path class="cls-6" d="M41.6,103.3l-2.9,1.2a9.1,9.1,0,0,0-4.2,2.6c-1.9,2.1-6.1,1.9-7.8-.4a1.7,1.7,0,0,1-.2-2.2c1.2-1.9,2.2-3.8,3.3-5.8a9.9,9.9,0,0,1,9.4-5.5c2.2,0.1,4.2.9,5,3.3A5.9,5.9,0,0,1,41.6,103.3ZM28,106.1c2.1,0.9,3.8,1.7,5.2-.1a8.8,8.8,0,0,1,5.7-3.4,5.2,5.2,0,0,0,1.3-.6,4.2,4.2,0,0,0,2.3-4.6,3.8,3.8,0,0,0-4.1-2.6,8,8,0,0,0-6.2,3.6A75,75,0,0,0,28,106.1Z"/><path class="cls-7" d="M28,106.1a75,75,0,0,1,4.1-7.7,8,8,0,0,1,6.2-3.6,3.8,3.8,0,0,1,4.1,2.6,4.2,4.2,0,0,1-2.3,4.6,5.2,5.2,0,0,1-1.3.6,8.8,8.8,0,0,0-5.7,3.4C31.8,107.8,30.1,107,28,106.1Zm2.1-.5,0.3,0.4,1.3-1.2H31.7Z"/><path class="cls-6" d="M90.8,29.8c0.6,2.6-2.8,6.7-5,7.6s-4.6.2-6.7-.7a2.8,2.8,0,0,1-1.2-1.9,13.4,13.4,0,0,1,2-9.8,6,6,0,0,1,5.5-2.3A5.5,5.5,0,0,1,90.3,26C90.7,27,90.6,28.2,90.8,29.8Zm-8,6.2c3.2,0.6,7.5-4.4,6.2-8.4a4.7,4.7,0,0,0-4.3-3.5,4.5,4.5,0,0,0-4,2.9,29.1,29.1,0,0,0-1.2,5.3A3.3,3.3,0,0,0,82.8,36Z"/><path class="cls-7" d="M82.8,36a3.3,3.3,0,0,1-3.3-3.7,29.1,29.1,0,0,1,1.2-5.3,4.5,4.5,0,0,1,4-2.9A4.7,4.7,0,0,1,89,27.6C90.3,31.6,86,36.6,82.8,36Z"/><path class="cls-6" d="M21.9,54.4l0.6-1c-1.7-2-1.6-4.3-.7-6.7a5.3,5.3,0,0,1,2.9-3,2.9,2.9,0,0,1,3.3.5c0.6,0.6,1.3,1.1,1.9,1.8a8,8,0,0,0,4.3,2.3,15.1,15.1,0,0,1,3.4,1.2,4.7,4.7,0,0,1,.6,8.4,6.7,6.7,0,0,1-6.6.7l-3.3-1.5Zm12.6,3.2h1.1a4.1,4.1,0,0,0,3.3-3.3c0.1-1.4-.7-2.6-2.5-3.4a15.5,15.5,0,0,0-3-.9,8.1,8.1,0,0,1-4.8-2.9A9.7,9.7,0,0,0,27,45.5a1.8,1.8,0,0,0-2.2,0,4.7,4.7,0,0,0-2.2,4.2,3.7,3.7,0,0,0,2.5,3.5c0.7,0.3,1.2.9,1.9,1.3C29.3,55.8,31.6,57.3,34.5,57.6Z"/><path class="cls-7" d="M34.5,57.6c-2.9-.3-5.2-1.8-7.5-3.1-0.7-.4-1.2-1-1.9-1.3a3.7,3.7,0,0,1-2.5-3.5,4.7,4.7,0,0,1,2.2-4.2,1.8,1.8,0,0,1,2.2,0,9.7,9.7,0,0,1,1.5,1.5,8.1,8.1,0,0,0,4.8,2.9,15.5,15.5,0,0,1,3,.9c1.8,0.8,2.6,1.9,2.5,3.4a4.1,4.1,0,0,1-3.3,3.3H34.5Z"/></svg>